<svg width="81" height="69" viewBox="0 0 81 69" fill="none" xmlns="http://www.w3.org/2000/svg">
<g opacity="0.3">
<mask id="mask0_1_11" style="mask-type:alpha" maskUnits="userSpaceOnUse" x="0" y="0" width="8" height="7">
<path d="M3.73505 6.89838C5.79786 6.89838 7.4701 5.3541 7.4701 3.44917C7.4701 1.54424 5.79786 0 3.73505 0C1.67223 0 0 1.54424 0 3.44917C0 5.3541 1.67223 6.89838 3.73505 6.89838Z" fill="url(#paint0_linear_1_11)"/>
</mask>
<g mask="url(#mask0_1_11)">
<path d="M3.73505 6.89838C5.79786 6.89838 7.4701 5.3541 7.4701 3.44917C7.4701 1.54424 5.79786 0 3.73505 0C1.67223 0 0 1.54424 0 3.44917C0 5.3541 1.67223 6.89838 3.73505 6.89838Z" fill="url(#paint1_linear_1_11)"/>
</g>
<mask id="mask1_1_11" style="mask-type:alpha" maskUnits="userSpaceOnUse" x="21" y="0" width="9" height="7">
<path d="M25.3668 6.89838C27.4296 6.89838 29.1019 5.3541 29.1019 3.44917C29.1019 1.54424 27.4296 0 25.3668 0C23.304 0 21.6318 1.54424 21.6318 3.44917C21.6318 5.3541 23.304 6.89838 25.3668 6.89838Z" fill="url(#paint2_linear_1_11)"/>
</mask>
<g mask="url(#mask1_1_11)">
<path d="M25.3672 6.89838C27.43 6.89838 29.1022 5.3541 29.1022 3.44917C29.1022 1.54424 27.43 0 25.3672 0C23.3044 0 21.6321 1.54424 21.6321 3.44917C21.6321 5.3541 23.3044 6.89838 25.3672 6.89838Z" fill="url(#paint3_linear_1_11)"/>
</g>
<mask id="mask2_1_11" style="mask-type:alpha" maskUnits="userSpaceOnUse" x="43" y="0" width="8" height="7">
<path d="M46.9986 6.89838C49.0614 6.89838 50.7337 5.3541 50.7337 3.44917C50.7337 1.54424 49.0614 0 46.9986 0C44.9358 0 43.2635 1.54424 43.2635 3.44917C43.2635 5.3541 44.9358 6.89838 46.9986 6.89838Z" fill="url(#paint4_linear_1_11)"/>
</mask>
<g mask="url(#mask2_1_11)">
<path d="M46.9993 6.89838C49.0621 6.89838 50.7344 5.3541 50.7344 3.44917C50.7344 1.54424 49.0621 0 46.9993 0C44.9365 0 43.2643 1.54424 43.2643 3.44917C43.2643 5.3541 44.9365 6.89838 46.9993 6.89838Z" fill="url(#paint5_linear_1_11)"/>
</g>
<mask id="mask3_1_11" style="mask-type:alpha" maskUnits="userSpaceOnUse" x="64" y="0" width="9" height="7">
<path d="M68.6304 6.89838C70.6932 6.89838 72.3654 5.3541 72.3654 3.44917C72.3654 1.54424 70.6932 0 68.6304 0C66.5676 0 64.8953 1.54424 64.8953 3.44917C64.8953 5.3541 66.5676 6.89838 68.6304 6.89838Z" fill="url(#paint6_linear_1_11)"/>
</mask>
<g mask="url(#mask3_1_11)">
<path d="M68.631 6.89838C70.6938 6.89838 72.366 5.3541 72.366 3.44917C72.366 1.54424 70.6938 0 68.631 0C66.5682 0 64.8959 1.54424 64.8959 3.44917C64.8959 5.3541 66.5682 6.89838 68.631 6.89838Z" fill="url(#paint7_linear_1_11)"/>
</g>
<mask id="mask4_1_11" style="mask-type:alpha" maskUnits="userSpaceOnUse" x="0" y="17" width="8" height="8">
<path d="M3.73505 24.1736C5.79786 24.1736 7.4701 22.6294 7.4701 20.7245C7.4701 18.8196 5.79786 17.2753 3.73505 17.2753C1.67223 17.2753 0 18.8196 0 20.7245C0 22.6294 1.67223 24.1736 3.73505 24.1736Z" fill="url(#paint8_linear_1_11)"/>
</mask>
<g mask="url(#mask4_1_11)">
<path d="M3.73505 24.1737C5.79786 24.1737 7.4701 22.6295 7.4701 20.7245C7.4701 18.8196 5.79786 17.2754 3.73505 17.2754C1.67223 17.2754 0 18.8196 0 20.7245C0 22.6295 1.67223 24.1737 3.73505 24.1737Z" fill="url(#paint9_linear_1_11)"/>
</g>
<mask id="mask5_1_11" style="mask-type:alpha" maskUnits="userSpaceOnUse" x="21" y="17" width="9" height="8">
<path d="M25.3668 24.1737C27.4296 24.1737 29.1019 22.6295 29.1019 20.7246C29.1019 18.8197 27.4296 17.2754 25.3668 17.2754C23.304 17.2754 21.6318 18.8197 21.6318 20.7246C21.6318 22.6295 23.304 24.1737 25.3668 24.1737Z" fill="url(#paint10_linear_1_11)"/>
</mask>
<g mask="url(#mask5_1_11)">
<path d="M25.3672 24.1737C27.43 24.1737 29.1022 22.6294 29.1022 20.7245C29.1022 18.8196 27.43 17.2754 25.3672 17.2754C23.3044 17.2754 21.6321 18.8196 21.6321 20.7245C21.6321 22.6294 23.3044 24.1737 25.3672 24.1737Z" fill="url(#paint11_linear_1_11)"/>
</g>
<mask id="mask6_1_11" style="mask-type:alpha" maskUnits="userSpaceOnUse" x="43" y="17" width="8" height="8">
<path d="M46.9986 24.1737C49.0614 24.1737 50.7337 22.6295 50.7337 20.7246C50.7337 18.8197 49.0614 17.2754 46.9986 17.2754C44.9358 17.2754 43.2635 18.8197 43.2635 20.7246C43.2635 22.6295 44.9358 24.1737 46.9986 24.1737Z" fill="url(#paint12_linear_1_11)"/>
</mask>
<g mask="url(#mask6_1_11)">
<path d="M46.9993 24.1737C49.0621 24.1737 50.7344 22.6294 50.7344 20.7245C50.7344 18.8196 49.0621 17.2754 46.9993 17.2754C44.9365 17.2754 43.2643 18.8196 43.2643 20.7245C43.2643 22.6294 44.9365 24.1737 46.9993 24.1737Z" fill="url(#paint13_linear_1_11)"/>
</g>
<mask id="mask7_1_11" style="mask-type:alpha" maskUnits="userSpaceOnUse" x="64" y="17" width="9" height="8">
<path d="M68.6304 24.1737C70.6932 24.1737 72.3654 22.6295 72.3654 20.7246C72.3654 18.8197 70.6932 17.2754 68.6304 17.2754C66.5676 17.2754 64.8953 18.8197 64.8953 20.7246C64.8953 22.6295 66.5676 24.1737 68.6304 24.1737Z" fill="url(#paint14_linear_1_11)"/>
</mask>
<g mask="url(#mask7_1_11)">
<path d="M68.631 24.1737C70.6938 24.1737 72.366 22.6294 72.366 20.7245C72.366 18.8196 70.6938 17.2754 68.631 17.2754C66.5682 17.2754 64.8959 18.8196 64.8959 20.7245C64.8959 22.6294 66.5682 24.1737 68.631 24.1737Z" fill="url(#paint15_linear_1_11)"/>
</g>
<mask id="mask8_1_11" style="mask-type:alpha" maskUnits="userSpaceOnUse" x="0" y="34" width="8" height="8">
<path d="M3.73505 41.4491C5.79786 41.4491 7.4701 39.9048 7.4701 37.9999C7.4701 36.0949 5.79786 34.5507 3.73505 34.5507C1.67223 34.5507 0 36.0949 0 37.9999C0 39.9048 1.67223 41.4491 3.73505 41.4491Z" fill="url(#paint16_linear_1_11)"/>
</mask>
<g mask="url(#mask8_1_11)">
<path d="M3.73505 41.4492C5.79786 41.4492 7.4701 39.9049 7.4701 38C7.4701 36.095 5.79786 34.5508 3.73505 34.5508C1.67223 34.5508 0 36.095 0 38C0 39.9049 1.67223 41.4492 3.73505 41.4492Z" fill="url(#paint17_linear_1_11)"/>
</g>
<mask id="mask9_1_11" style="mask-type:alpha" maskUnits="userSpaceOnUse" x="21" y="34" width="9" height="8">
<path d="M25.3668 41.4493C27.4296 41.4493 29.1019 39.9051 29.1019 38.0001C29.1019 36.0952 27.4296 34.5509 25.3668 34.5509C23.304 34.5509 21.6318 36.0952 21.6318 38.0001C21.6318 39.9051 23.304 41.4493 25.3668 41.4493Z" fill="url(#paint18_linear_1_11)"/>
</mask>
<g mask="url(#mask9_1_11)">
<path d="M25.3672 41.4491C27.43 41.4491 29.1022 39.9049 29.1022 37.9999C29.1022 36.095 27.43 34.5508 25.3672 34.5508C23.3044 34.5508 21.6321 36.095 21.6321 37.9999C21.6321 39.9049 23.3044 41.4491 25.3672 41.4491Z" fill="url(#paint19_linear_1_11)"/>
</g>
<mask id="mask10_1_11" style="mask-type:alpha" maskUnits="userSpaceOnUse" x="43" y="34" width="8" height="8">
<path d="M46.9986 41.4493C49.0614 41.4493 50.7337 39.9051 50.7337 38.0001C50.7337 36.0952 49.0614 34.5509 46.9986 34.5509C44.9358 34.5509 43.2635 36.0952 43.2635 38.0001C43.2635 39.9051 44.9358 41.4493 46.9986 41.4493Z" fill="url(#paint20_linear_1_11)"/>
</mask>
<g mask="url(#mask10_1_11)">
<path d="M46.9993 41.4491C49.0621 41.4491 50.7344 39.9049 50.7344 37.9999C50.7344 36.095 49.0621 34.5508 46.9993 34.5508C44.9365 34.5508 43.2643 36.095 43.2643 37.9999C43.2643 39.9049 44.9365 41.4491 46.9993 41.4491Z" fill="url(#paint21_linear_1_11)"/>
</g>
<mask id="mask11_1_11" style="mask-type:alpha" maskUnits="userSpaceOnUse" x="64" y="34" width="9" height="8">
<path d="M68.6304 41.4493C70.6932 41.4493 72.3654 39.9051 72.3654 38.0001C72.3654 36.0952 70.6932 34.5509 68.6304 34.5509C66.5676 34.5509 64.8953 36.0952 64.8953 38.0001C64.8953 39.9051 66.5676 41.4493 68.6304 41.4493Z" fill="url(#paint22_linear_1_11)"/>
</mask>
<g mask="url(#mask11_1_11)">
<path d="M68.631 41.4491C70.6938 41.4491 72.366 39.9049 72.366 37.9999C72.366 36.095 70.6938 34.5508 68.631 34.5508C66.5682 34.5508 64.8959 36.095 64.8959 37.9999C64.8959 39.9049 66.5682 41.4491 68.631 41.4491Z" fill="url(#paint23_linear_1_11)"/>
</g>
<mask id="mask12_1_11" style="mask-type:alpha" maskUnits="userSpaceOnUse" x="0" y="51" width="8" height="8">
<path d="M3.73505 58.7246C5.79786 58.7246 7.4701 57.1804 7.4701 55.2754C7.4701 53.3705 5.79786 51.8263 3.73505 51.8263C1.67223 51.8263 0 53.3705 0 55.2754C0 57.1804 1.67223 58.7246 3.73505 58.7246Z" fill="url(#paint24_linear_1_11)"/>
</mask>
<g mask="url(#mask12_1_11)">
<path d="M3.73505 58.7244C5.79786 58.7244 7.4701 57.1801 7.4701 55.2752C7.4701 53.3703 5.79786 51.826 3.73505 51.826C1.67223 51.826 0 53.3703 0 55.2752C0 57.1801 1.67223 58.7244 3.73505 58.7244Z" fill="url(#paint25_linear_1_11)"/>
</g>
<mask id="mask13_1_11" style="mask-type:alpha" maskUnits="userSpaceOnUse" x="21" y="51" width="9" height="8">
<path d="M25.3668 58.7246C27.4296 58.7246 29.1019 57.1804 29.1019 55.2754C29.1019 53.3705 27.4296 51.8263 25.3668 51.8263C23.304 51.8263 21.6318 53.3705 21.6318 55.2754C21.6318 57.1804 23.304 58.7246 25.3668 58.7246Z" fill="url(#paint26_linear_1_11)"/>
</mask>
<g mask="url(#mask13_1_11)">
<path d="M25.3672 58.7244C27.43 58.7244 29.1022 57.1801 29.1022 55.2752C29.1022 53.3703 27.43 51.826 25.3672 51.826C23.3044 51.826 21.6321 53.3703 21.6321 55.2752C21.6321 57.1801 23.3044 58.7244 25.3672 58.7244Z" fill="url(#paint27_linear_1_11)"/>
</g>
<mask id="mask14_1_11" style="mask-type:alpha" maskUnits="userSpaceOnUse" x="43" y="51" width="8" height="8">
<path d="M46.9986 58.7246C49.0614 58.7246 50.7337 57.1804 50.7337 55.2754C50.7337 53.3705 49.0614 51.8263 46.9986 51.8263C44.9358 51.8263 43.2635 53.3705 43.2635 55.2754C43.2635 57.1804 44.9358 58.7246 46.9986 58.7246Z" fill="url(#paint28_linear_1_11)"/>
</mask>
<g mask="url(#mask14_1_11)">
<path d="M46.9993 58.7244C49.0621 58.7244 50.7344 57.1801 50.7344 55.2752C50.7344 53.3703 49.0621 51.826 46.9993 51.826C44.9365 51.826 43.2643 53.3703 43.2643 55.2752C43.2643 57.1801 44.9365 58.7244 46.9993 58.7244Z" fill="url(#paint29_linear_1_11)"/>
</g>
<mask id="mask15_1_11" style="mask-type:alpha" maskUnits="userSpaceOnUse" x="64" y="51" width="9" height="8">
<path d="M68.6304 58.7246C70.6932 58.7246 72.3654 57.1804 72.3654 55.2754C72.3654 53.3705 70.6932 51.8263 68.6304 51.8263C66.5676 51.8263 64.8953 53.3705 64.8953 55.2754C64.8953 57.1804 66.5676 58.7246 68.6304 58.7246Z" fill="url(#paint30_linear_1_11)"/>
</mask>
<g mask="url(#mask15_1_11)">
<path d="M68.631 58.7244C70.6938 58.7244 72.366 57.1801 72.366 55.2752C72.366 53.3703 70.6938 51.826 68.631 51.826C66.5682 51.826 64.8959 53.3703 64.8959 55.2752C64.8959 57.1801 66.5682 58.7244 68.631 58.7244Z" fill="url(#paint31_linear_1_11)"/>
</g>
</g>
<defs>
<linearGradient id="paint0_linear_1_11" x1="36.3758" y1="79.9637" x2="-8.23563" y2="-42.6661" gradientUnits="userSpaceOnUse">
<stop stop-color="#FFA434"/>
<stop offset="1" stop-color="#FFA434"/>
</linearGradient>
<linearGradient id="paint1_linear_1_11" x1="36.3758" y1="79.9637" x2="-8.23563" y2="-42.6661" gradientUnits="userSpaceOnUse">
<stop stop-color="#FFA434"/>
<stop offset="1" stop-color="#FFA434"/>
</linearGradient>
<linearGradient id="paint2_linear_1_11" x1="58.0076" y1="79.9637" x2="13.3962" y2="-42.6661" gradientUnits="userSpaceOnUse">
<stop stop-color="#FFA434"/>
<stop offset="1" stop-color="#FFA434"/>
</linearGradient>
<linearGradient id="paint3_linear_1_11" x1="58.0079" y1="79.9637" x2="13.3966" y2="-42.6661" gradientUnits="userSpaceOnUse">
<stop stop-color="#FFA434"/>
<stop offset="1" stop-color="#FFA434"/>
</linearGradient>
<linearGradient id="paint4_linear_1_11" x1="79.6394" y1="79.9637" x2="35.028" y2="-42.6661" gradientUnits="userSpaceOnUse">
<stop stop-color="#FFA434"/>
<stop offset="1" stop-color="#FFA434"/>
</linearGradient>
<linearGradient id="paint5_linear_1_11" x1="79.6401" y1="79.9637" x2="35.0287" y2="-42.6661" gradientUnits="userSpaceOnUse">
<stop stop-color="#FFA434"/>
<stop offset="1" stop-color="#FFA434"/>
</linearGradient>
<linearGradient id="paint6_linear_1_11" x1="101.271" y1="79.9637" x2="56.6598" y2="-42.6661" gradientUnits="userSpaceOnUse">
<stop stop-color="#FFA434"/>
<stop offset="1" stop-color="#FFA434"/>
</linearGradient>
<linearGradient id="paint7_linear_1_11" x1="101.272" y1="79.9637" x2="56.6604" y2="-42.6661" gradientUnits="userSpaceOnUse">
<stop stop-color="#FFA434"/>
<stop offset="1" stop-color="#FFA434"/>
</linearGradient>
<linearGradient id="paint8_linear_1_11" x1="36.3758" y1="97.2383" x2="-8.23485" y2="-25.3906" gradientUnits="userSpaceOnUse">
<stop stop-color="#FFA434"/>
<stop offset="1" stop-color="#FFA434"/>
</linearGradient>
<linearGradient id="paint9_linear_1_11" x1="36.3758" y1="97.2383" x2="-8.23485" y2="-25.3906" gradientUnits="userSpaceOnUse">
<stop stop-color="#FFA434"/>
<stop offset="1" stop-color="#FFA434"/>
</linearGradient>
<linearGradient id="paint10_linear_1_11" x1="58.0076" y1="97.2383" x2="13.397" y2="-25.3906" gradientUnits="userSpaceOnUse">
<stop stop-color="#FFA434"/>
<stop offset="1" stop-color="#FFA434"/>
</linearGradient>
<linearGradient id="paint11_linear_1_11" x1="58.0079" y1="97.2383" x2="13.3974" y2="-25.3906" gradientUnits="userSpaceOnUse">
<stop stop-color="#FFA434"/>
<stop offset="1" stop-color="#FFA434"/>
</linearGradient>
<linearGradient id="paint12_linear_1_11" x1="79.6394" y1="97.2383" x2="35.0288" y2="-25.3906" gradientUnits="userSpaceOnUse">
<stop stop-color="#FFA434"/>
<stop offset="1" stop-color="#FFA434"/>
</linearGradient>
<linearGradient id="paint13_linear_1_11" x1="79.6401" y1="97.2383" x2="35.0295" y2="-25.3906" gradientUnits="userSpaceOnUse">
<stop stop-color="#FFA434"/>
<stop offset="1" stop-color="#FFA434"/>
</linearGradient>
<linearGradient id="paint14_linear_1_11" x1="101.271" y1="97.2383" x2="56.6606" y2="-25.3906" gradientUnits="userSpaceOnUse">
<stop stop-color="#FFA434"/>
<stop offset="1" stop-color="#FFA434"/>
</linearGradient>
<linearGradient id="paint15_linear_1_11" x1="101.272" y1="97.2383" x2="56.6612" y2="-25.3906" gradientUnits="userSpaceOnUse">
<stop stop-color="#FFA434"/>
<stop offset="1" stop-color="#FFA434"/>
</linearGradient>
<linearGradient id="paint16_linear_1_11" x1="36.3758" y1="114.514" x2="-8.23563" y2="-8.11542" gradientUnits="userSpaceOnUse">
<stop stop-color="#FFA434"/>
<stop offset="1" stop-color="#FFA434"/>
</linearGradient>
<linearGradient id="paint17_linear_1_11" x1="36.3758" y1="114.514" x2="-8.23563" y2="-8.11533" gradientUnits="userSpaceOnUse">
<stop stop-color="#FFA434"/>
<stop offset="1" stop-color="#FFA434"/>
</linearGradient>
<linearGradient id="paint18_linear_1_11" x1="58.0076" y1="114.515" x2="13.3962" y2="-8.11521" gradientUnits="userSpaceOnUse">
<stop stop-color="#FFA434"/>
<stop offset="1" stop-color="#FFA434"/>
</linearGradient>
<linearGradient id="paint19_linear_1_11" x1="58.0079" y1="114.514" x2="13.3966" y2="-8.11539" gradientUnits="userSpaceOnUse">
<stop stop-color="#FFA434"/>
<stop offset="1" stop-color="#FFA434"/>
</linearGradient>
<linearGradient id="paint20_linear_1_11" x1="79.6394" y1="114.515" x2="35.028" y2="-8.11521" gradientUnits="userSpaceOnUse">
<stop stop-color="#FFA434"/>
<stop offset="1" stop-color="#FFA434"/>
</linearGradient>
<linearGradient id="paint21_linear_1_11" x1="79.6401" y1="114.514" x2="35.0287" y2="-8.11539" gradientUnits="userSpaceOnUse">
<stop stop-color="#FFA434"/>
<stop offset="1" stop-color="#FFA434"/>
</linearGradient>
<linearGradient id="paint22_linear_1_11" x1="101.271" y1="114.515" x2="56.6598" y2="-8.11521" gradientUnits="userSpaceOnUse">
<stop stop-color="#FFA434"/>
<stop offset="1" stop-color="#FFA434"/>
</linearGradient>
<linearGradient id="paint23_linear_1_11" x1="101.272" y1="114.514" x2="56.6604" y2="-8.11539" gradientUnits="userSpaceOnUse">
<stop stop-color="#FFA434"/>
<stop offset="1" stop-color="#FFA434"/>
</linearGradient>
<linearGradient id="paint24_linear_1_11" x1="36.3758" y1="131.79" x2="-8.23563" y2="9.16015" gradientUnits="userSpaceOnUse">
<stop stop-color="#FFA434"/>
<stop offset="1" stop-color="#FFA434"/>
</linearGradient>
<linearGradient id="paint25_linear_1_11" x1="36.3758" y1="131.79" x2="-8.23563" y2="9.15991" gradientUnits="userSpaceOnUse">
<stop stop-color="#FFA434"/>
<stop offset="1" stop-color="#FFA434"/>
</linearGradient>
<linearGradient id="paint26_linear_1_11" x1="58.0076" y1="131.79" x2="13.3962" y2="9.16012" gradientUnits="userSpaceOnUse">
<stop stop-color="#FFA434"/>
<stop offset="1" stop-color="#FFA434"/>
</linearGradient>
<linearGradient id="paint27_linear_1_11" x1="58.0079" y1="131.79" x2="13.3966" y2="9.1599" gradientUnits="userSpaceOnUse">
<stop stop-color="#FFA434"/>
<stop offset="1" stop-color="#FFA434"/>
</linearGradient>
<linearGradient id="paint28_linear_1_11" x1="79.6394" y1="131.79" x2="35.028" y2="9.16012" gradientUnits="userSpaceOnUse">
<stop stop-color="#FFA434"/>
<stop offset="1" stop-color="#FFA434"/>
</linearGradient>
<linearGradient id="paint29_linear_1_11" x1="79.6401" y1="131.79" x2="35.0287" y2="9.15987" gradientUnits="userSpaceOnUse">
<stop stop-color="#FFA434"/>
<stop offset="1" stop-color="#FFA434"/>
</linearGradient>
<linearGradient id="paint30_linear_1_11" x1="101.271" y1="131.79" x2="56.6598" y2="9.16012" gradientUnits="userSpaceOnUse">
<stop stop-color="#FFA434"/>
<stop offset="1" stop-color="#FFA434"/>
</linearGradient>
<linearGradient id="paint31_linear_1_11" x1="101.272" y1="131.79" x2="56.6604" y2="9.1599" gradientUnits="userSpaceOnUse">
<stop stop-color="#FFA434"/>
<stop offset="1" stop-color="#FFA434"/>
</linearGradient>
</defs>
</svg>
